**ABCDEFGHIJKLMNOPQRSTUVWXYZabcdefghijklmnopqrstuvwxyz**************************
**PARASOLID !"#$%&'()*+,-./:;<=>?@[\]^_`{|}~0123456789**************************
**PART1;
MC=AMD64;
MC_MODEL=Intel64 Family 6 Model 69 Stepping 1, GenuineIntel;
MC_ID=unknown;
OS=Windows_NT;
OS_RELEASE=unknown;
FRU=Parasolid Version 25.1, build 239,  8-18-2014;
APPL=SolidWorks 2014-2014292;
SITE=;
USER=unknown;
FORMAT=text;
GUISE=transmit;
KEY=GBT39 M4;
FILE=GBT39 M4.x_t;
DATE=Fri Jul 08 10:17:27 2016;
**PART2;
SCH=SCH_2501239_25001;
USFLD_SIZE=0;
**PART3;
**END_OF_HEADER*****************************************************************
T51 : TRANSMIT FILE created by modeller version 250123923 SCH_2501239_25001_1300
6189 0 12 29 CCCCCCCCCCCCCDI5 owner1040 0 CCCCCCCCCA16 index_map_offset0 0 1 dA9
 index_map82 0 A17 node_id_index_map82 0 A20 schema_embedding_map82 0 A5 child12
 0 A14 lowest_node_id0 0 1 dZ1 613 0 2 0 0 0 0 1e3 1e-8 0 3 0 1 0 1 1 4 5 6 7 8
 9 10 0 0 0 0 0 0 70 11 CI9 list_type0 0 1 uI10 notransmit0 0 1 lCCCDCCDI12 fing
er_index0 0 1 dI12 finger_block1012 0 CZ2 0 4 T1 0 0 2 20 1 11 11 13 255 4 94 0
 1 0 12 0 0 13 0 50 255 5 93 0 12 14 0 15 +.0035 .0035 .0032 -1 -185863229568943
5e-31 0 1858632295689435e-31 -1 0 31 255 6 195 0 16 17 0 0 --24532694666934e-31
 -24532694666934e-31 .0032 0 0 1 1 0 0 .0035 29 255 7 420 0 10 18 0 -24532694666
934e-31 -.0035 .0032 19 8 CCCCCCCA5 owner12 0 Z8 28 0 1 13 0 19 V0 16 255 9 206
 0 ?20 0 21 6 21 16 1 18 255 10 417 0 22 0 23 7 ?1 17 255 22 0 24 25 26 10 27 28
 0 20 -18 23 413 0 29 10 30 18 ?1 17 29 0 31 32 33 23 34 35 0 25 -18 30 409 0 32
 23 36 37 ?1 29 18 416 0 23 37 7 -.0035 -28869503356876e-31 .0032 29 37 412 0 30
 38 18 -24532694666934e-31 .0035 .0032 29 38 215 0 36 39 37 -.0035 -.0035 .00236
2987908916665 18 36 213 0 26 30 40 38 ?1 29 39 70 0 40 41 38 .0035 -.0035 0 18 4
0 61 0 42 36 43 39 ?1 29 41 71 0 43 44 39 -.0035 -.0035 0 18 43 62 0 45 40 46 41
 ?1 29 44 72 0 46 47 41 -.0035 .0035 0 18 46 63 0 48 43 49 44 ?1 29 47 73 0 49 5
0 44 .0035 .0035 0 18 49 64 0 51 46 52 47 ?1 29 50 385 0 52 53 47 .0035 -1802748
163202095e-33 .0032 18 52 288 0 54 49 55 50 ?1 29 53 389 0 55 56 50 .0035 -.0035
 .00236298790891666 18 55 296 0 57 52 58 53 ?1 29 56 390 0 58 59 53 .0035 .0035
 .00236298790891666 18 58 297 0 60 55 61 56 ?1 29 59 391 0 61 0 56 -.0035 .0035
 .00236298790891666 18 61 298 0 33 58 0 59 ?1 17 33 0 31 29 32 61 62 63 0 34 -15
 255 31 332 0 29 64 0 17 32 0 31 33 29 30 65 66 0 67 +17 62 0 68 69 70 30 33 63
 0 0 +16 63 276 0 ?62 71 72 73 72 72 1 17 34 0 74 48 75 61 29 35 0 70 +15 74 80
 0 76 77 0 17 48 0 74 78 34 46 70 79 0 80 +17 75 0 74 34 76 23 26 81 0 0 +16 35
 275 0 ?34 72 82 83 81 81 1 17 70 0 68 62 80 61 48 79 0 0 -15 68 82 0 70 84 0 17
 80 0 68 70 51 46 85 86 0 87 +16 79 225 0 ?48 88 89 90 0 0 1 16 88 236 0 ?51 16
 79 17 0 0 1 16 89 214 0 ?45 79 91 92 0 0 1 30 255 90 88 0 79 92 17 0 +-.0035 .0
035 .0032 0 0 -1 30 92 87 0 89 93 90 0 +-.0035 -.0035 .0032 0 0 -1 30 17 89 0 88
 90 6 0 +.0035 .0035 .0032 0 0 -1 30 93 86 0 91 94 92 0 +.0035 -.0035 .0032 0 0
 -1 16 91 211 0 ?42 89 95 93 0 0 1 30 94 66 0 95 96 93 0 +-.0035 -.0035 0 1 0 0
 16 95 45 0 ?97 91 98 94 0 0 1 30 96 67 0 98 99 94 0 +-.0035 .0035 0 12390881971
2629e-30 -1 0 16 98 49 0 ?78 95 86 96 0 0 1 30 99 68 0 86 100 96 0 +-.0035 .0035
 0 -1 0 0 16 86 53 0 ?80 98 101 99 0 0 1 30 100 69 0 101 102 99 0 +.0035 .0035 0
 -1858632295689435e-31 1 0 16 101 57 0 ?103 86 104 100 0 0 1 31 102 170 0 71 105
 100 0 +0 0 .0032 0 0 1 1 0 0 .002 16 71 151 0 ?106 104 63 102 0 0 1 31 105 171
 0 104 73 102 0 +0 0 0 0 0 1 1 0 0 .002 16 104 148 0 ?107 101 71 105 0 0 1 38 25
5 73 373 0 72 108 105 0 +14 109 110 111 112 16 72 277 0 ?69 63 35 73 63 63 1 38
 108 374 0 113 83 73 0 -109 5 114 115 116 50 14 92 0 84 117 5 118 +-.0035 .0035
 .0032 0 -1 0 0 0 -1 52 255 109 364 0 64 0 119 120 --24532694666934e-31 -2453269
4666934e-31 .0032 0 0 -1 .0035 .866025403784442 .5 -1 0 0 40 255 5 110 0 1 5 .00
1386204027919436 .3723859791296455 ??-.00687269254713146 .0035 .0007678653317472
3 -.00259818219612842 .0035 .00270407799139806 -.000295951367288835 .0035 .00319
2788795553855 .002500114702765 .0035 .002737410045559475 .0116176545040769 .0035
 -.001784507724557575 41 255 1 111 L-.00687269254713146 .0035 .00076786533174723
 41 1 112 L.0116176545040769 .0035 -.001784507724557575 14 255 64 330 121 ?122 1
23 31 4 109 -123 122 122 123 19 51 255 119 167 0 124 109 125 0 +0 0 0 0 0 1 .002
 1 0 0 141 255 120 126 127 128 109 38 126 376 0 28 129 83 0 -109 130 131 132 133
 141 127 73 134 120 109 141 128 83 120 134 109 38 83 375 0 81 126 108 0 +117 109
 135 136 137 141 134 108 128 127 109 16 81 284 0 ?75 113 138 83 35 35 1 50 117 9
1 0 77 130 14 139 +-.0035 .0035 .0032 1 123908819712629e-30 0 -123908819712629e-
30 1 0 40 5 135 0 1 5 .00138620402791943 .3723859791296465 ??-.0035 -.0068726925
4713146 .000767865331747233 -.0035 -.002598182196128425 .00270407799139806 -.003
5 -.000295951367288838 .00319278879555386 -.0035 .002500114702764995 .0027374100
45559475 -.0035 .01161765450407686 -.001784507724557565 41 1 136 L-.0035 -.00687
269254713146 .000767865331747233 41 1 137 L-.0035 .01161765450407686 -.001784507
724557565 14 77 81 140 ?141 84 74 4 117 -0 0 141 84 19 50 130 90 0 141 142 117 1
43 +-.0035 -.0035 .0032 0 1 0 0 0 1 141 139 83 139 139 117 14 141 79 144 ?145 77
 146 4 130 -0 0 145 77 19 50 142 65 0 147 125 130 0 +0 0 0 0 0 1 1 0 0 141 143 1
26 143 143 130 14 147 43 148 ?124 145 149 4 142 -0 0 124 145 19 50 125 2 0 145 1
19 142 0 +0 0 .0032 0 0 1 1 0 0 14 145 1 150 ?147 141 151 4 125 +0 0 147 141 19
 81 255 1 150 607 152 145 153 0 148 154 155 15 151 207 0 156 145 157 13 19 29 0
 0 0 0 0 0 8 12 14 12 85 154 ?84 0 158 4 5 -0 0 84 0 19 81 1 154 608 152 12 159
 0 150 160 161 14 84 83 160 ?77 12 68 4 14 -0 0 77 12 19 15 158 84 0 162 12 0 17
 162 0 158 163 103 58 51 88 0 0 -17 163 0 158 164 162 52 60 82 0 0 +17 103 0 158
 162 42 49 165 101 0 0 +17 51 0 68 80 69 49 162 88 0 85 +17 69 0 68 51 62 58 67
 72 0 162 +17 85 0 166 165 87 49 80 86 0 103 -15 166 44 0 165 147 0 17 165 0 166
 167 85 40 103 101 0 0 -17 87 0 166 85 167 46 78 98 0 0 -17 167 0 166 87 165 43
 97 95 0 0 -17 78 0 74 76 48 43 87 98 0 167 +17 76 0 74 75 78 36 45 89 0 0 -17 4
5 0 146 97 27 43 76 89 0 78 +15 146 78 0 168 141 0 17 97 0 146 168 45 40 167 95
 0 165 +17 27 0 146 45 169 36 22 28 0 76 +17 169 0 146 27 168 10 57 138 0 0 +16
 28 283 0 ?27 138 66 126 138 138 1 16 138 282 0 ?169 81 28 126 28 28 1 16 66 262
 0 ?32 28 0 129 0 0 1 31 129 378 0 66 0 126 0 +-24532694666934e-31 -245326946669
34e-31 .0032 0 0 -1 -1 0 0 .0035 17 168 0 146 169 97 55 42 91 0 0 -17 57 0 170 5
4 20 55 169 138 0 164 -15 170 344 0 20 171 0 17 54 0 170 20 57 52 164 113 0 172
 -17 20 0 170 57 54 10 156 9 0 173 +17 164 0 158 42 163 55 54 113 0 168 +17 42 0
 158 103 164 40 168 91 0 97 +16 113 281 0 ?164 82 81 108 82 82 1 16 82 278 0 ?16
3 35 113 108 113 113 1 17 156 0 151 174 173 52 20 9 0 163 -17 173 0 151 156 65 1
0 25 21 0 169 -17 65 0 151 173 174 23 32 66 0 75 -17 25 0 24 26 22 23 173 21 0 6
5 +16 21 202 0 ?25 9 16 6 16 9 1 16 16 193 0 ?172 21 88 6 9 21 1 17 172 0 175 60
 67 52 174 16 0 156 +15 175 335 0 172 123 0 17 60 0 175 67 172 58 163 82 0 69 -1
7 67 0 175 172 60 30 69 72 0 174 -17 174 0 151 65 156 30 172 16 0 62 -14 123 333
 176 ?64 124 175 4 109 -171 64 64 124 19 81 1 176 612 152 123 177 0 178 179 180
 14 124 154 179 ?123 147 181 4 119 -0 0 123 147 19 14 171 342 182 ?0 122 170 4 1
09 -122 123 0 122 19 81 1 182 610 152 171 183 0 160 178 184 14 122 345 178 ?171
 64 24 4 109 -64 171 171 64 19 81 1 178 611 152 122 185 0 182 176 186 15 24 347
 0 22 122 0 80 255 1 152 187 188 9000 1 1 1 1 1 1 1 1 0 FFFFTFTFFFFFFF1 81 1 185
 577 189 122 0 178 190 183 191 82 255 1 186 477692012 80 1 189 0 192 8001 0 0 0
 0 3 5 0 0 0 FFFFTFTFFFFFFF2 81 1 190 576 189 64 0 121 177 185 193 81 1 183 578
 189 171 0 182 185 0 194 83 255 3 191 1 1 1 83 3 194 1 1 1 81 1 121 603 152 64 1
90 0 0 140 195 81 1 177 575 189 123 0 176 196 190 197 83 3 193 1 1 1 81 1 196 57
4 189 124 0 179 198 177 199 83 3 197 1 1 1 81 1 179 613 152 124 196 0 176 0 200
 81 1 198 573 189 147 0 148 153 196 201 83 3 199 1 1 1 81 1 148 606 152 147 198
 0 144 150 202 81 1 153 572 189 145 0 150 203 198 204 83 3 201 1 1 1 81 1 203 57
1 189 141 0 144 205 153 206 83 3 204 1 1 1 81 1 144 605 152 141 203 0 140 148 20
7 81 1 205 570 189 77 0 140 208 203 209 83 3 206 1 1 1 81 1 140 604 152 77 205 0
 121 144 210 81 1 208 569 189 84 0 160 159 205 211 83 3 209 1 1 1 81 1 160 609 1
52 84 208 0 154 182 212 81 1 159 568 189 12 0 154 0 208 213 83 3 211 1 1 1 83 3
 213 1 1 1 82 1 212 438435948 82 1 210 438173804 82 1 207 437911660 82 1 202 436
994153 82 1 200 452001897 82 1 195 479789164 79 255 15 192 SDL/TYSA_COLOUR79 14
 188 SWEntUnchanged82 1 184 478150764 15 181 157 0 214 124 215 17 214 0 181 214
 214 0 107 104 0 0 -15 215 158 0 106 124 0 17 106 0 215 106 106 0 216 71 0 0 +17
 216 0 157 216 216 0 106 71 0 0 -15 157 143 0 216 145 0 17 107 0 149 107 107 0 2
14 104 0 0 +15 149 136 0 107 147 166 82 1 180 479395948 17 26 0 24 22 25 36 75 8
1 0 27 -82 1 161 438698092 82 1 155 431358060 40 5 131 0 1 5 .001386204027919432
 .372385979129646 ??-.00687269254713146 -.0035 .000767865331747233 -.00259818219
612842 -.0035 .00270407799139806 -.000295951367288836 -.0035 .00319278879555386
 .002500114702765 -.0035 .002737410045559475 .01161765450407688 -.0035 -.0017845
07724557565 41 1 132 L-.00687269254713146 -.0035 .000767865331747233 41 1 133 L.
01161765450407688 -.0035 -.001784507724557565 141 118 73 118 118 14 40 5 114 0 1
 5 .00138620402792136 .372385979128141 ??.0035 -.00687269254714572 .000767865331
739896 .0035 -.00259818219612968 .002704077991397625 .0035 -.000295951367280285
 .00319278879555427 .0035 .002500114702763585 .00273741004555995 .0035 .01161765
45040807 -.001784507724559685 41 1 115 L.0035 -.00687269254714572 .0007678653317
39896 41 1 116 L.0035 .0116176545040807 -.001784507724559685 19 13 95 0 1 0 8 4
 S0 141 15 108 15 15 5 74 4 CI16 index_map_offset0 0 1 dCCZ20 11 2 0 0 179 183 0
 0 0 0 0 0 0 0 0 0 0 0 0 0 0 0 0 0 1 0 
