**ABCDEFGHIJKLMNOPQRSTUVWXYZabcdefghijklmnopqrstuvwxyz**************************
**PARASOLID !"#$%&'()*+,-./:;<=>?@[\]^_`{|}~0123456789**************************
**PART1;
MC=x86;
MC_MODEL=x86 Family 6 Model 58 Stepping 9, GenuineIntel;
MC_ID=unknown;
OS=Windows_NT;
OS_RELEASE=unknown;
FRU=Parasolid Version 24.1, build 264,  4-19-2013;
APPL=SolidWorks 2013-2013185;
SITE=;
USER=unknown;
FORMAT=text;
GUISE=transmit;
KEY=GBT895.2 8;
FILE=GBT895.2 8.x_t;
DATE=Sun Jan 25 22:17:34 2015;
**PART2;
SCH=SCH_2401264_20000;
USFLD_SIZE=0;
**PART3;
**END_OF_HEADER*****************************************************************
T51 : TRANSMIT FILE created by modeller version 240126423 SCH_2401264_20000_1300
6189 0 12 27 CCCCCCCCCCCCCCCCCCCCCCCA16 index_map_offset0 0 1 dA9 index_map82 0
 A17 node_id_index_map82 0 A20 schema_embedding_map82 0 Z1 83 0 2 0 0 0 0 1e3 1e
-8 0 3 0 1 0 1 1 4 5 6 0 7 8 0 0 0 0 0 70 11 CI9 list_type0 0 1 uI10 notransmit0
 0 1 lCCCDCCDI12 finger_index0 0 1 dI12 finger_block1012 0 CZ2 0 4 T1 0 0 2 20 1
 9 9 13 255 4 8 0 1 0 10 0 0 11 0 54 255 5 24 0 10 12 0 0 +0 0 0 0 0 1 .0043 4e-
4 1 0 0 31 255 6 5 0 8 13 0 0 +-.002149999999999955 .003723909236273115 0 -.8660
25403784445 -.499999999999989 0 .499999999999989 -.866025403784445 0 4e-4 19 255
 7 12 0 1 11 0 14 V16 255 8 4 0 ?15 0 16 6 0 0 1 17 255 15 0 17 15 15 0 18 8 0 0
 +16 16 14 0 ?19 8 0 13 0 0 1 17 19 0 20 19 19 0 21 16 0 0 +31 13 23 0 16 0 6 0
 +-.000232879562653542 .004293689218993185 0 -.998532376510043 -.054158037826405
1 0 .0541580378264051 -.998532376510043 0 4e-4 15 255 20 19 0 19 22 0 17 21 0 23
 21 21 0 19 16 0 0 -15 23 17 0 21 10 0 14 255 10 10 24 ?25 0 17 4 5 +0 0 25 0 14
 81 255 1 24 81 26 10 27 0 0 28 29 14 25 1 28 ?22 10 30 4 12 -0 0 22 10 14 15 17
 9 0 15 10 23 13 14 11 0 0 0 0 0 0 7 10 81 1 28 82 26 25 31 0 24 32 33 14 22 18
 32 ?0 25 20 4 34 +0 0 0 25 14 15 30 3 0 18 25 0 50 255 12 2 0 25 34 5 0 +-.0021
49999999999955 .003723909236273115 0 -.866025403784445 -.499999999999989 0 .4999
99999999989 -.866025403784445 0 50 34 22 0 22 0 12 0 +-.000232879562653542 .0042
93689218993185 0 -.998532376510043 -.0541580378264051 0 .0541580378264051 -.9985
32376510043 0 17 18 0 30 18 18 0 15 8 0 0 -81 1 32 83 26 22 35 0 28 0 36 80 255
 1 26 37 38 9000 1 1 1 1 1 1 1 1 0 FFFFTFTFFFFFFF1 81 1 35 72 39 22 0 32 31 0 40
 82 255 1 36 -1278541719 80 1 39 0 41 8001 0 0 0 0 3 5 0 0 0 FFFFTFTFFFFFFF2 81
 1 31 71 39 25 0 28 27 35 42 83 255 3 40 .752941176470588 .752941176470588 .7529
41176470588 81 1 27 70 39 10 0 24 0 31 43 83 3 42 .752941176470588 .752941176470
588 .752941176470588 83 3 43 .752941176470588 .752941176470588 .752941176470588
 79 255 15 41 SDL/TYSA_COLOUR79 14 38 SWEntUnchanged82 1 33 -1279983511 82 1 29
 -1279262615 19 11 7 0 1 0 7 4 S74 4 CI16 index_map_offset0 0 1 dCCZ20 9 2 0 0 3
2 35 0 0 0 0 0 0 0 0 0 0 0 0 0 0 0 0 0 0 1 0 
